# xmcd
#
# Track frame offsets:
#	150
#	13463
#	23248
#	37795
#	49095
#	62165
#	73995
#	85380
#	99227
#	109635
#
# Disc length: 1638 seconds
#
# Revision: 1
# Processed by: cddbd v1.5.2PL0 Copyright (c) Steve Scherf et al.
# Submitted via: audiograbber 1.83.01
#
DISCID=8106640a
DTITLE=Javier Solís - Dos ídolos que se fueron-Interpreta a José A. jiménez
DYEAR=2001
DGENRE=Ranchero
TTITLE0=Pa Todo el año
TTITLE1=Serenata sin luna
TTITLE2=La mano de Dios
TTITLE3=Amanecí en tus brazos
TTITLE4=Retirada
TTITLE5=Cuando vivas conmigo
TTITLE6=Que bonito amor
TTITLE7=Llegando a tí-Poco a poco
TTITLE8=El camino de la noche
TTITLE9=El peor de los caminos
EXTD=Compilación de los años 1959, 1962, 1963, 1964, 1966 en 2001
EXTT0=
EXTT1=
EXTT2=
EXTT3=
EXTT4=
EXTT5=
EXTT6=
EXTT7=
EXTT8=
EXTT9=
PLAYORDER=
